<svg width="119" height="21" viewBox="0 0 119 21" fill="none" xmlns="http://www.w3.org/2000/svg">
<g id="Group">
<g id="Group_2">
<g id="Group_3">
<path id="Vector" d="M0 20.3088L7.1416 0H13.6784L20.7832 20.3088H17.7593L15.9082 15.1651H4.87501L3.02387 20.3088H0ZM5.51659 13.079H15.264L11.3724 2.00021H9.40819L5.51659 13.079Z" fill="#15162B"/>
<path id="Vector_2" d="M23.276 20.3374V17.6623L36.7651 2.70375V2.0861H23.276V0H40.278V2.67512L26.7521 17.6337V18.2206H40.278V20.3374H23.276Z" fill="#15162B"/>
<path id="Vector_3" d="M45.0794 20.3088V0H50.5592L57.777 17.0467L65.0317 0H70.5115V20.3088H67.4876V2.49923H66.9196L59.4756 19.5746H56.1126L48.6686 2.49923H48.1006V20.3088H45.0794Z" fill="#15162B"/>
<path id="Vector_4" d="M74.5503 20.3088L81.6919 0H88.2287L95.3335 20.3088H92.3097L90.4585 15.1651H79.4253L77.5742 20.3088H74.5503ZM80.0669 13.079H89.8143L85.9227 2.00021H83.9585L80.0669 13.079Z" fill="#15162B"/>
<path id="Vector_5" d="M99.375 20.3088V0H105.005L114.828 18.2206H115.583V0H118.607V20.3088H113.09L103.114 2.08815H102.396V20.3088H99.375Z" fill="#15162B"/>
</g>
</g>
<g id="Group_4">
<g id="Group_5">
<path id="Vector_6" d="M0 20.3088L7.1416 0H13.6784L20.7832 20.3088H17.7593L15.9082 15.1651H4.87501L3.02387 20.3088H0ZM5.51659 13.079H15.264L11.3724 2.00021H9.40819L5.51659 13.079Z" fill="white"/>
<path id="Vector_7" d="M23.276 20.3374V17.6623L36.7651 2.70375V2.0861H23.276V0H40.278V2.67512L26.7521 17.6337V18.2206H40.278V20.3374H23.276Z" fill="white"/>
<path id="Vector_8" d="M45.0794 20.3088V0H50.5592L57.777 17.0467L65.0317 0H70.5115V20.3088H67.4876V2.49923H66.9196L59.4756 19.5746H56.1126L48.6686 2.49923H48.1006V20.3088H45.0794Z" fill="white"/>
<path id="Vector_9" d="M74.5503 20.3088L81.6919 0H88.2287L95.3335 20.3088H92.3097L90.4585 15.1651H79.4253L77.5742 20.3088H74.5503ZM80.0669 13.079H89.8143L85.9227 2.00021H83.9585L80.0669 13.079Z" fill="white"/>
<path id="Vector_10" d="M99.375 20.3088V0H105.005L114.828 18.2206H115.583V0H118.607V20.3088H113.09L103.114 2.08815H102.396V20.3088H99.375Z" fill="white"/>
</g>
</g>
</g>
</svg>
