<svg width="54" height="54" viewBox="0 0 54 54" fill="none" xmlns="http://www.w3.org/2000/svg">
<path d="M52 26.6268C52 19.8974 49.3661 13.4437 44.6777 8.68528C39.9893 3.9269 33.6304 1.25366 27 1.25366" stroke="white" stroke-width="2.5" stroke-linecap="round"/>
<path opacity="0.2" d="M27 1.25366C22.0555 1.25366 17.222 2.74177 13.1107 5.52981C8.99952 8.31784 5.7952 12.2806 3.90301 16.9169C2.01082 21.5533 1.51574 26.6549 2.48037 31.5768C3.445 36.4988 5.82602 41.0198 9.32233 44.5683C12.8186 48.1168 17.2732 50.5334 22.1227 51.5124C26.9723 52.4914 31.9989 51.9889 36.5671 50.0685C41.1352 48.1481 45.0397 44.8959 47.7867 40.7234C50.5338 36.5508 52 31.6451 52 26.6268" stroke="white" stroke-width="2.5" stroke-linecap="round"/>
<ellipse cx="27" cy="26.6266" rx="20" ry="20.2985" fill="white"/>
<g opacity="0.4">
<path d="M25 21.5518L29.8617 26.486C29.9384 26.5639 29.9384 26.6889 29.8617 26.7668L25 31.701" stroke="#10173A" stroke-width="1.5" stroke-linecap="round"/>
</g>
</svg>
