<svg width="54" height="54" viewBox="0 0 54 54" fill="none" xmlns="http://www.w3.org/2000/svg">
<path d="M27 51.9999C33.6304 51.9999 39.9893 49.3267 44.6777 44.5683C49.3661 39.8099 52 33.3562 52 26.6268C52 19.8974 49.3661 13.4437 44.6777 8.68528C39.9893 3.9269 33.6304 1.25366 27 1.25366" stroke="white" stroke-width="2.5" stroke-linecap="round"/>
<path opacity="0.2" d="M27 1.25366C20.3696 1.25366 14.0107 3.92689 9.32233 8.68528C4.63392 13.4437 2 19.8974 2 26.6268C2 33.3562 4.63392 39.8099 9.32233 44.5683C14.0107 49.3267 20.3696 51.9999 27 51.9999" stroke="white" stroke-width="2.5" stroke-linecap="round"/>
<ellipse cx="27" cy="26.6266" rx="20" ry="20.2985" fill="white"/>
<g opacity="0.4">
<path d="M25 21.5518L29.8617 26.486C29.9384 26.5639 29.9384 26.6889 29.8617 26.7668L25 31.701" stroke="#10173A" stroke-width="1.5" stroke-linecap="round"/>
</g>
</svg>
