<svg width="53" height="55" viewBox="0 0 53 55" fill="none" xmlns="http://www.w3.org/2000/svg">
<path d="M26.6218 52.811C33.2522 52.811 39.611 50.1377 44.2994 45.3793C48.9878 40.621 51.6218 34.1672 51.6218 27.4378C51.6218 20.7085 48.9878 14.2547 44.2994 9.49632C39.611 4.73793 33.2522 2.0647 26.6218 2.0647" stroke="white" stroke-width="2.5" stroke-linecap="round"/>
<path d="M26.7308 2.12163C20.1005 2.15685 13.7559 4.86383 9.09284 9.64705C4.42977 14.4303 1.83017 20.8979 1.86592 27.6272C1.90167 34.3565 4.56983 40.7962 9.28345 45.5296C13.9971 50.263 20.37 52.9024 27.0003 52.8672" stroke="white" stroke-width="2.5" stroke-linecap="round"/>
<ellipse cx="26.6218" cy="27.4377" rx="20" ry="20.2985" fill="white"/>
<g opacity="0.4">
<path d="M24.6218 22.3628L29.4835 27.2971C29.5602 27.3749 29.5602 27.4999 29.4835 27.5778L24.6218 32.512" stroke="#10173A" stroke-width="1.5" stroke-linecap="round"/>
</g>
</svg>
