<svg width="16" height="16" viewBox="0 0 16 16" fill="none" xmlns="http://www.w3.org/2000/svg">
<g id="Group 128">
<path id="vector" d="M15.75 8.17493C15.75 7.52743 15.6964 7.05493 15.5803 6.56494H8.03571V9.48741H12.4642C12.375 10.2137 11.8928 11.3074 10.8214 12.0424L10.8064 12.1402L13.1919 13.9513L13.3571 13.9674C14.8749 12.5937 15.75 10.5724 15.75 8.17493Z" fill="#4285F4"/>
<path id="vector_2" d="M8.03519 15.8751C10.2048 15.8751 12.0262 15.175 13.3566 13.9675L10.8209 12.0425C10.1423 12.5062 9.23159 12.83 8.03519 12.83C5.91021 12.83 4.10666 11.4563 3.46375 9.5575L3.36951 9.56534L0.889067 11.4466L0.856628 11.535C2.17804 14.1075 4.89232 15.8751 8.03519 15.8751Z" fill="#34A853"/>
<path id="vector_3" d="M3.46425 9.55748C3.29461 9.06749 3.19643 8.54245 3.19643 7.99997C3.19643 7.45744 3.29461 6.93246 3.45532 6.44247L3.45083 6.33811L0.939294 4.42664L0.857121 4.46494C0.312503 5.53245 0 6.73123 0 7.99997C0 9.26872 0.312503 10.4674 0.857121 11.5349L3.46425 9.55748Z" fill="#FBBC05"/>
<path id="vector_4" d="M8.03523 3.16998C9.54414 3.16998 10.562 3.80873 11.1424 4.34251L13.4102 2.1725C12.0174 0.903753 10.2048 0.125 8.03523 0.125C4.89234 0.125 2.17805 1.89249 0.856628 4.46497L3.45484 6.44249C4.10668 4.54375 5.91024 3.16998 8.03523 3.16998Z" fill="#EB4335"/>
</g>
</svg>
