<svg width="24" height="24" viewBox="0 0 24 24" fill="none" xmlns="http://www.w3.org/2000/svg">
<path d="M10.1991 3.34523L10.1997 3.34477C11.191 2.54855 12.8014 2.5512 13.812 3.35611C13.8122 3.35626 13.8124 3.35641 13.8126 3.35656L20.3585 8.59329C20.6945 8.86808 20.9983 9.31037 21.1969 9.83023C21.3953 10.3495 21.4644 10.8823 21.3994 11.3116L20.1411 18.8417C20.141 18.8424 20.1408 18.8432 20.1407 18.8439C19.9112 20.1582 18.6199 21.25 17.3 21.25H6.70002C5.3583 21.25 4.09881 20.1864 3.86948 18.8547C3.86939 18.8542 3.86931 18.8537 3.86922 18.8532L2.60977 11.3164L2.60948 11.3147C2.53626 10.8827 2.6006 10.3494 2.7983 9.831C2.99597 9.31265 3.30331 8.87113 3.64779 8.59628L3.64909 8.59523L10.1991 3.34523ZM12 19.5C12.8242 19.5 13.5 18.8242 13.5 18V15C13.5 14.1758 12.8242 13.5 12 13.5C11.1758 13.5 10.5 14.1758 10.5 15V18C10.5 18.8242 11.1758 19.5 12 19.5Z" stroke="white" stroke-width="1.5"/>
</svg>
