<svg width="34" height="34" viewBox="0 0 34 34" fill="none" xmlns="http://www.w3.org/2000/svg">
<path d="M22.6667 2.8335H11.3333C5.66667 2.8335 2.83333 5.66683 2.83333 11.3335V29.7502C2.83333 30.5293 3.47083 31.1668 4.25 31.1668H22.6667C28.3333 31.1668 31.1667 28.3335 31.1667 22.6668V11.3335C31.1667 5.66683 28.3333 2.8335 22.6667 2.8335Z" fill="#4582C4"/>
<path d="M23.4458 10.5681C21.6608 8.78311 19.9325 8.74061 18.105 10.5681L16.9858 11.6873C16.8867 11.7864 16.8584 11.9281 16.8867 12.0556C17.5809 14.4923 19.5217 16.4331 21.9583 17.1273C21.9867 17.1414 22.0291 17.1414 22.0716 17.1414C22.1708 17.1414 22.27 17.0989 22.3408 17.0281L23.4458 15.9231C24.3525 15.0164 24.7917 14.1523 24.7917 13.2739C24.7917 12.3531 24.3525 11.4748 23.4458 10.5681Z" fill="white"/>
<path d="M20.315 17.9491C20.0458 17.8216 19.7908 17.6941 19.55 17.5383C19.3517 17.4249 19.1534 17.2974 18.9692 17.1558C18.8134 17.0566 18.6292 16.9149 18.445 16.7591C18.4167 16.7449 18.36 16.7024 18.2892 16.6174C17.9917 16.3624 17.6517 16.0224 17.34 15.6683C17.3117 15.6541 17.2692 15.5833 17.2125 15.4983C17.1133 15.3849 16.9717 15.2008 16.83 15.0024C16.7167 14.8608 16.5892 14.6624 16.4758 14.4641C16.3342 14.2233 16.1925 13.9683 16.0792 13.7133C15.9517 13.4299 15.8525 13.1749 15.7533 12.9199L10.4125 18.2608C10.0583 18.6149 9.73252 19.2666 9.66168 19.7483L9.25084 22.6949C9.15167 23.3183 9.33582 23.8991 9.71832 24.2958C10.0442 24.6216 10.4975 24.7916 10.9934 24.7916C11.1067 24.7916 11.2058 24.7774 11.3192 24.7633L14.2659 24.3524C14.7475 24.2816 15.3992 23.9558 15.7533 23.6016L21.0942 18.2608C20.8392 18.1616 20.5842 18.0624 20.315 17.9491Z" fill="white"/>
</svg>
