<svg width="24" height="25" viewBox="0 0 24 25" fill="none" xmlns="http://www.w3.org/2000/svg">
<path d="M17 18.9302H13L8.54999 21.8902C7.88999 22.3302 7 21.8602 7 21.0602V18.9302C4 18.9302 2 16.9302 2 13.9302V7.93018C2 4.93018 4 2.93018 7 2.93018H17C20 2.93018 22 4.93018 22 7.93018V13.9302C22 16.9302 20 18.9302 17 18.9302Z" stroke="white" stroke-width="1.5" stroke-miterlimit="10" stroke-linecap="round" stroke-linejoin="round"/>
<path d="M12 11.8599V11.6499C12 10.9699 12.42 10.6099 12.84 10.3199C13.25 10.0399 13.66 9.6799 13.66 9.0199C13.66 8.0999 12.92 7.35986 12 7.35986C11.08 7.35986 10.34 8.0999 10.34 9.0199" stroke="white" stroke-width="1.5" stroke-linecap="round" stroke-linejoin="round"/>
<path d="M11.9955 14.25H12.0045" stroke="white" stroke-width="1.5" stroke-linecap="round" stroke-linejoin="round"/>
</svg>
