<svg width="24" height="25" viewBox="0 0 24 25" fill="none" xmlns="http://www.w3.org/2000/svg">
<path d="M20.91 11.6198C20.91 16.5098 17.36 21.0898 12.51 22.4298C12.18 22.5198 11.82 22.5198 11.49 22.4298C6.63999 21.0898 3.09 16.5098 3.09 11.6198V7.22979C3.09 6.40979 3.71001 5.47979 4.48001 5.16979L10.05 2.88982C11.3 2.37982 12.71 2.37982 13.96 2.88982L19.53 5.16979C20.29 5.47979 20.92 6.40979 20.92 7.22979L20.91 11.6198Z" stroke="white" stroke-width="1.5" stroke-linecap="round" stroke-linejoin="round"/>
<path d="M12 13C13.1046 13 14 12.1046 14 11C14 9.89543 13.1046 9 12 9C10.8954 9 10 9.89543 10 11C10 12.1046 10.8954 13 12 13Z" stroke="white" stroke-width="1.5" stroke-miterlimit="10" stroke-linecap="round" stroke-linejoin="round"/>
<path d="M12 13V16" stroke="white" stroke-width="1.5" stroke-miterlimit="10" stroke-linecap="round" stroke-linejoin="round"/>
</svg>
