<svg width="11" height="12" viewBox="0 0 11 12" fill="none" xmlns="http://www.w3.org/2000/svg">
<path id="star-5" d="M10.9672 4.47746C10.8952 4.25635 10.6987 4.09915 10.4672 4.07746L7.29417 3.78846L6.04117 0.854464C5.94927 0.639462 5.73799 0.5 5.50417 0.5C5.27035 0.5 5.05907 0.639462 4.96717 0.854464L3.71217 3.78846L0.543169 4.07646C0.310653 4.0979 0.113254 4.25578 0.0412445 4.4779C-0.0307654 4.70002 0.0364563 4.94368 0.212169 5.09746L2.61217 7.19746L1.90117 10.3085C1.84859 10.5363 1.93728 10.7736 2.12644 10.9111C2.3156 11.0486 2.56863 11.0598 2.76917 10.9395L5.50417 9.30846L8.23817 10.9425C8.43885 11.0624 8.69171 11.0511 8.88089 10.9137C9.07006 10.7764 9.15909 10.5394 9.10717 10.3115L8.40017 7.19946L10.8002 5.09946C10.9765 4.94545 11.0438 4.70103 10.9712 4.47846L10.9672 4.47746Z" fill="#FABC17"/>
</svg>
