<svg width="23" height="23" viewBox="0 0 23 23" fill="none" xmlns="http://www.w3.org/2000/svg">
<g id="Group">
<g id="Group_2">
<g id="Group_3">
<g id="Group_4">
<g id="Vector">
<mask id="path-1-inside-1_517_530" fill="white">
<path d="M11.4695 18.1303C7.82643 18.1303 4.84033 15.1741 4.84033 11.5012C4.84033 7.85817 7.79657 4.87207 11.4695 4.87207C15.1424 4.87207 18.0986 7.85817 18.0986 11.5012C18.0986 15.1442 15.1125 18.1303 11.4695 18.1303ZM11.4695 5.7679C8.3042 5.7679 5.73616 8.33594 5.73616 11.5012C5.73616 14.6665 8.3042 17.2345 11.4695 17.2345C14.6347 17.2345 17.2028 14.6665 17.2028 11.5012C17.2028 8.33594 14.6347 5.7679 11.4695 5.7679Z"/>
</mask>
<path d="M11.4695 16.6303C8.65045 16.6303 6.34033 14.3413 6.34033 11.5012H3.34033C3.34033 16.0069 7.0024 19.6303 11.4695 19.6303V16.6303ZM6.34033 11.5012C6.34033 8.68219 8.62939 6.37207 11.4695 6.37207V3.37207C6.96374 3.37207 3.34033 7.03414 3.34033 11.5012H6.34033ZM11.4695 6.37207C14.3095 6.37207 16.5986 8.68219 16.5986 11.5012H19.5986C19.5986 7.03414 15.9752 3.37207 11.4695 3.37207V6.37207ZM16.5986 11.5012C16.5986 14.3158 14.2841 16.6303 11.4695 16.6303V19.6303C15.9409 19.6303 19.5986 15.9727 19.5986 11.5012H16.5986ZM11.4695 4.2679C7.47577 4.2679 4.23616 7.50751 4.23616 11.5012H7.23616C7.23616 9.16437 9.13263 7.2679 11.4695 7.2679V4.2679ZM4.23616 11.5012C4.23616 15.4949 7.47578 18.7345 11.4695 18.7345V15.7345C9.13263 15.7345 7.23616 13.838 7.23616 11.5012H4.23616ZM11.4695 18.7345C15.4632 18.7345 18.7028 15.4949 18.7028 11.5012H15.7028C15.7028 13.838 13.8063 15.7345 11.4695 15.7345V18.7345ZM18.7028 11.5012C18.7028 7.50751 15.4632 4.2679 11.4695 4.2679V7.2679C13.8063 7.2679 15.7028 9.16437 15.7028 11.5012H18.7028Z" fill="white" mask="url(#path-1-inside-1_517_530)"/>
</g>
</g>
<g id="Group_5">
<g id="Group_6">
<g id="Vector_2">
<mask id="path-3-inside-2_517_530" fill="white">
<path d="M11.7979 4.30478C11.5292 4.30478 11.35 4.09576 11.35 3.82701L11.4993 0.422859C11.4993 0.183971 11.7083 -0.0250551 11.9771 0.00480584C12.216 0.00480584 12.425 0.213833 12.3951 0.482581L12.2458 3.88673C12.216 4.12562 12.0368 4.30478 11.7979 4.30478Z"/>
</mask>
<path d="M11.35 3.82701L9.85145 3.76128L9.85001 3.79413V3.82701H11.35ZM11.4993 0.422859L12.9979 0.488585L12.9993 0.455738V0.422859H11.4993ZM11.9771 0.00480584L11.8114 1.49563L11.894 1.50481H11.9771V0.00480584ZM12.3951 0.482581L10.9043 0.316934L10.8988 0.366765L10.8966 0.416855L12.3951 0.482581ZM12.2458 3.88673L13.7343 4.07278L13.7417 4.01282L13.7444 3.95246L12.2458 3.88673ZM11.7979 2.80478C12.0755 2.80478 12.3687 2.92288 12.5809 3.15527C12.782 3.37556 12.85 3.62945 12.85 3.82701H9.85001C9.85001 4.79283 10.5752 5.80478 11.7979 5.80478V2.80478ZM12.8486 3.89273L12.9979 0.488585L10.0008 0.357133L9.85145 3.76128L12.8486 3.89273ZM12.9993 0.422859C12.9993 1.04816 12.4606 1.56776 11.8114 1.49563L12.1427 -1.48602C10.956 -1.61787 9.99931 -0.680213 9.99931 0.422859H12.9993ZM11.9771 1.50481C11.3518 1.50481 10.8322 0.966122 10.9043 0.316934L13.886 0.648228C14.0178 -0.538457 13.0802 -1.49519 11.9771 -1.49519V1.50481ZM10.8966 0.416855L10.7473 3.821L13.7444 3.95246L13.8937 0.548307L10.8966 0.416855ZM10.7574 3.70068C10.7825 3.49991 10.8771 3.27883 11.0658 3.09913C11.2614 2.91287 11.5254 2.80478 11.7979 2.80478V5.80478C12.8919 5.80478 13.6233 4.96015 13.7343 4.07278L10.7574 3.70068Z" fill="white" mask="url(#path-3-inside-2_517_530)"/>
</g>
</g>
<g id="Group_7">
<g id="Vector_3">
<mask id="path-5-inside-3_517_530" fill="white">
<path d="M10.9917 22.9977C10.7229 22.9977 10.5438 22.7886 10.5438 22.5199L10.6931 19.1157C10.6931 18.8768 10.9021 18.6678 11.1708 18.6977C11.4097 18.6977 11.6188 18.9067 11.5889 19.1755L11.4396 22.5796C11.4396 22.8185 11.2306 22.9977 10.9917 22.9977Z"/>
</mask>
<path d="M10.5438 22.5199L9.0452 22.4542L9.04376 22.487V22.5199H10.5438ZM10.6931 19.1157L12.1916 19.1815L12.1931 19.1486V19.1157H10.6931ZM11.1708 18.6977L11.0052 20.1885L11.0878 20.1977H11.1708V18.6977ZM11.5889 19.1755L10.0981 19.0098L10.0925 19.0596L10.0903 19.1097L11.5889 19.1755ZM11.4396 22.5796L9.94103 22.5139L9.93959 22.5467V22.5796H11.4396ZM10.9917 21.4977C11.2692 21.4977 11.5625 21.6157 11.7747 21.8481C11.9758 22.0684 12.0438 22.3223 12.0438 22.5199H9.04376C9.04376 23.4857 9.76899 24.4977 10.9917 24.4977V21.4977ZM12.0423 22.5856L12.1916 19.1815L9.19451 19.05L9.0452 22.4542L12.0423 22.5856ZM12.1931 19.1157C12.1931 19.741 11.6544 20.2606 11.0052 20.1885L11.3365 17.2069C10.1498 17.075 9.19307 18.0127 9.19307 19.1157H12.1931ZM11.1708 20.1977C10.5456 20.1977 10.0259 19.659 10.0981 19.0098L13.0797 19.3411C13.2116 18.1544 12.2739 17.1977 11.1708 17.1977V20.1977ZM10.0903 19.1097L9.94103 22.5139L12.9381 22.6453L13.0875 19.2412L10.0903 19.1097ZM9.93959 22.5796C9.93959 21.8587 10.5399 21.4977 10.9917 21.4977V24.4977C11.9213 24.4977 12.9396 23.7782 12.9396 22.5796H9.93959Z" fill="white" mask="url(#path-5-inside-3_517_530)"/>
</g>
</g>
<g id="Group_8">
<g id="Vector_4">
<mask id="path-7-inside-4_517_530" fill="white">
<path d="M6.3035 6.30596C6.18405 6.30596 6.06461 6.24623 5.97502 6.15665L3.67573 3.64833C3.49657 3.46917 3.52643 3.17056 3.70559 3.02125C3.88476 2.84209 4.18337 2.87195 4.33267 3.05111L6.63197 5.55943C6.81113 5.7386 6.78127 6.03721 6.6021 6.18651C6.51252 6.27609 6.39308 6.30596 6.3035 6.30596Z"/>
</mask>
<path d="M5.97502 6.15665L4.86929 7.17024L4.89132 7.19426L4.91436 7.21731L5.97502 6.15665ZM3.67573 3.64833L4.78146 2.63474L4.75944 2.61072L4.73639 2.58767L3.67573 3.64833ZM3.70559 3.02125L4.66587 4.17358L4.71814 4.13002L4.76625 4.08191L3.70559 3.02125ZM4.33267 3.05111L3.18034 4.01139L3.20301 4.03859L3.22694 4.0647L4.33267 3.05111ZM6.63197 5.55943L5.52623 6.57302L5.54826 6.59705L5.57131 6.62009L6.63197 5.55943ZM6.6021 6.18651L5.64183 5.03418L5.58956 5.07774L5.54144 5.12585L6.6021 6.18651ZM6.3035 4.80596C6.6719 4.80596 6.91475 4.97505 7.03569 5.09599L4.91436 7.21731C5.21447 7.51741 5.6962 7.80595 6.3035 7.80595V4.80596ZM7.08076 5.14306L4.78146 2.63474L2.57 4.66192L4.86929 7.17024L7.08076 5.14306ZM4.73639 2.58767C4.984 2.83527 5.07042 3.15286 5.05318 3.42017C5.03665 3.67637 4.921 3.96097 4.66587 4.17358L2.74532 1.86892C1.93243 2.54632 1.77251 3.86643 2.61507 4.70899L4.73639 2.58767ZM4.76625 4.08191C4.51865 4.32952 4.20106 4.41594 3.93376 4.3987C3.67755 4.38217 3.39295 4.26652 3.18034 4.01139L5.485 2.09084C4.8076 1.27795 3.4875 1.11803 2.64493 1.96059L4.76625 4.08191ZM3.22694 4.0647L5.52623 6.57302L7.7377 4.54585L5.4384 2.03753L3.22694 4.0647ZM5.57131 6.62009C5.3237 6.37249 5.23728 6.0549 5.25452 5.7876C5.27105 5.53139 5.38669 5.24679 5.64183 5.03418L7.56238 7.33884C8.37527 6.66144 8.53519 5.34134 7.69263 4.49877L5.57131 6.62009ZM5.54144 5.12585C5.80462 4.86268 6.1092 4.80596 6.3035 4.80596V7.80595C6.67696 7.80595 7.22042 7.68951 7.66277 7.24717L5.54144 5.12585Z" fill="white" mask="url(#path-7-inside-4_517_530)"/>
</g>
</g>
<g id="Group_9">
<g id="Vector_5">
<mask id="path-9-inside-5_517_530" fill="white">
<path d="M18.9646 20.1009C18.8451 20.1009 18.7257 20.0412 18.6361 19.9516L16.3368 17.4433C16.1576 17.2641 16.1875 16.9655 16.3667 16.8162C16.5458 16.637 16.8444 16.6669 16.9937 16.846L19.293 19.3544C19.4722 19.5335 19.4423 19.8321 19.2632 19.9814C19.1736 20.0412 19.0541 20.1009 18.9646 20.1009Z"/>
</mask>
<path d="M18.6361 19.9516L17.5304 20.9652L17.5524 20.9892L17.5754 21.0122L18.6361 19.9516ZM16.3368 17.4433L17.4425 16.4297L17.4205 16.4056L17.3975 16.3826L16.3368 17.4433ZM16.3667 16.8162L17.3269 17.9685L17.3792 17.9249L17.4273 17.8768L16.3667 16.8162ZM16.9937 16.846L15.8414 17.8063L15.8641 17.8335L15.888 17.8596L16.9937 16.846ZM19.293 19.3544L18.1873 20.3679L18.2093 20.392L18.2324 20.415L19.293 19.3544ZM19.2632 19.9814L20.0952 21.2295L20.1619 21.1851L20.2235 21.1338L19.2632 19.9814ZM18.9646 18.6009C19.333 18.6009 19.5758 18.77 19.6968 18.8909L17.5754 21.0122C17.8755 21.3123 18.3573 21.6009 18.9646 21.6009V18.6009ZM19.7418 18.938L17.4425 16.4297L15.2311 18.4568L17.5304 20.9652L19.7418 18.938ZM17.3975 16.3826C17.6451 16.6302 17.7315 16.9478 17.7142 17.2151C17.6977 17.4713 17.5821 17.7559 17.3269 17.9685L15.4064 15.6638C14.5935 16.3412 14.4336 17.6614 15.2761 18.5039L17.3975 16.3826ZM17.4273 17.8768C17.1797 18.1244 16.8621 18.2109 16.5948 18.1936C16.3386 18.1771 16.054 18.0614 15.8414 17.8063L18.1461 15.8858C17.4687 15.0729 16.1486 14.913 15.306 15.7555L17.4273 17.8768ZM15.888 17.8596L18.1873 20.3679L20.3988 18.3408L18.0995 15.8324L15.888 17.8596ZM18.2324 20.415C17.9848 20.1674 17.8983 19.8498 17.9156 19.5825C17.9321 19.3263 18.0478 19.0417 18.3029 18.8291L20.2235 21.1338C21.0363 20.4564 21.1963 19.1363 20.3537 18.2937L18.2324 20.415ZM18.4311 18.7334C18.4437 18.725 18.4725 18.7065 18.523 18.6848C18.5496 18.6734 18.5962 18.6552 18.66 18.6386C18.7206 18.6229 18.8266 18.6009 18.9646 18.6009V21.6009C19.304 21.6009 19.5739 21.4984 19.7048 21.4423C19.8597 21.3758 19.993 21.2976 20.0952 21.2295L18.4311 18.7334Z" fill="white" mask="url(#path-9-inside-5_517_530)"/>
</g>
</g>
<g id="Group_10">
<g id="Vector_6">
<mask id="path-11-inside-6_517_530" fill="white">
<path d="M3.82505 11.6203L0.420906 11.4709C0.182018 11.4709 -0.0270082 11.2619 0.00285271 10.9932C0.00285271 10.7543 0.211879 10.5453 0.480628 10.5751L3.88478 10.7244C4.12366 10.7244 4.33269 10.9334 4.30283 11.2022C4.24311 11.4411 4.06394 11.6203 3.82505 11.6203Z"/>
</mask>
<path d="M3.82505 11.6203L3.75933 13.1188L3.79217 13.1203H3.82505V11.6203ZM0.420906 11.4709L0.486632 9.97239L0.453785 9.97095H0.420906V11.4709ZM0.00285271 10.9932L1.49368 11.1588L1.50285 11.0762V10.9932H0.00285271ZM0.480628 10.5751L0.31498 12.0659L0.364812 12.0715L0.414901 12.0737L0.480628 10.5751ZM3.88478 10.7244L3.81905 12.223L3.8519 12.2244H3.88478V10.7244ZM4.30283 11.2022L5.75804 11.566L5.78251 11.4681L5.79365 11.3678L4.30283 11.2022ZM3.89078 10.1217L0.486632 9.97239L0.35518 12.9695L3.75933 13.1188L3.89078 10.1217ZM0.420906 9.97095C1.0462 9.97095 1.56581 10.5096 1.49368 11.1588L-1.48797 10.8275C-1.61983 12.0142 -0.682167 12.9709 0.420906 12.9709V9.97095ZM1.50285 10.9932C1.50285 11.6185 0.96417 12.1381 0.31498 12.0659L0.646275 9.08429C-0.540412 8.95244 -1.49715 9.8901 -1.49715 10.9932H1.50285ZM0.414901 12.0737L3.81905 12.223L3.9505 9.22586L0.546354 9.07656L0.414901 12.0737ZM3.88478 12.2244C3.25948 12.2244 2.73987 11.6857 2.812 11.0366L5.79365 11.3678C5.92551 10.1812 4.98784 9.22442 3.88478 9.22442V12.2244ZM2.84762 10.8384C2.88027 10.7078 2.95834 10.5398 3.12212 10.3909C3.29743 10.2315 3.54685 10.1203 3.82505 10.1203V13.1203C4.93302 13.1203 5.57965 12.2796 5.75804 11.566L2.84762 10.8384Z" fill="white" mask="url(#path-11-inside-6_517_530)"/>
</g>
</g>
<g id="Group_11">
<g id="Vector_7">
<mask id="path-13-inside-7_517_530" fill="white">
<path d="M22.518 12.4269L19.1139 12.2776C18.875 12.2776 18.666 12.0686 18.6958 11.7998C18.6958 11.5609 18.9048 11.3519 19.1736 11.3818L22.5777 11.5311C22.8166 11.5311 23.0257 11.7401 22.9958 12.0088C22.9659 12.2179 22.7569 12.4269 22.518 12.4269Z"/>
</mask>
<path d="M22.518 12.4269L22.4523 13.9255L22.4851 13.9269H22.518V12.4269ZM19.1139 12.2776L19.1796 10.779L19.1467 10.7776H19.1139V12.2776ZM18.6958 11.7998L20.1866 11.9655L20.1958 11.8829V11.7998H18.6958ZM19.1736 11.3818L19.0079 12.8726L19.0578 12.8781L19.1079 12.8803L19.1736 11.3818ZM22.5777 11.5311L22.512 13.0296L22.5449 13.0311H22.5777V11.5311ZM22.9958 12.0088L24.4807 12.221L24.484 12.1978L24.4866 12.1745L22.9958 12.0088ZM22.5837 10.9283L19.1796 10.779L19.0481 13.7761L22.4523 13.9255L22.5837 10.9283ZM19.1139 10.7776C19.7392 10.7776 20.2588 11.3163 20.1866 11.9655L17.205 11.6342C17.0731 12.8209 18.0108 13.7776 19.1139 13.7776V10.7776ZM20.1958 11.7998C20.1958 12.4251 19.6571 12.9447 19.0079 12.8726L19.3392 9.89093C18.1526 9.75908 17.1958 10.6967 17.1958 11.7998H20.1958ZM19.1079 12.8803L22.512 13.0296L22.6435 10.0325L19.2393 9.8832L19.1079 12.8803ZM22.5777 13.0311C21.9524 13.0311 21.4328 12.4924 21.505 11.8432L24.4866 12.1745C24.6185 10.9878 23.6808 10.0311 22.5777 10.0311V13.0311ZM21.5109 11.7967C21.5526 11.5049 21.6944 11.3068 21.8239 11.1885C21.9603 11.064 22.1958 10.9269 22.518 10.9269V13.9269C23.0791 13.9269 23.5386 13.6853 23.8467 13.404C24.1479 13.129 24.4092 12.7218 24.4807 12.221L21.5109 11.7967Z" fill="white" mask="url(#path-13-inside-7_517_530)"/>
</g>
</g>
<g id="Group_12">
<g id="Vector_8">
<mask id="path-15-inside-8_517_530" fill="white">
<path d="M3.31743 19.4441C3.19799 19.4441 3.07855 19.3844 2.98896 19.2948C2.8098 19.1156 2.83966 18.817 3.01882 18.6677L5.52714 16.3684C5.70631 16.1893 6.00492 16.2191 6.15422 16.3983C6.33339 16.5774 6.30353 16.8761 6.12436 17.0254L3.61604 19.3247C3.55632 19.3844 3.43688 19.4441 3.31743 19.4441Z"/>
</mask>
<path d="M3.01882 18.6677L3.9791 19.82L4.00631 19.7974L4.03241 19.7734L3.01882 18.6677ZM5.52714 16.3684L6.54073 17.4742L6.56476 17.4521L6.5878 17.4291L5.52714 16.3684ZM6.15422 16.3983L5.00189 17.3586L5.04545 17.4108L5.09356 17.4589L6.15422 16.3983ZM6.12436 17.0254L5.16409 15.873L5.13688 15.8957L5.11078 15.9196L6.12436 17.0254ZM3.61604 19.3247L2.60246 18.2189L2.57843 18.2409L2.55538 18.264L3.61604 19.3247ZM3.31743 17.9441C3.68584 17.9441 3.92869 18.1132 4.04962 18.2341L1.9283 20.3555C2.22841 20.6556 2.71014 20.9441 3.31743 20.9441V17.9441ZM4.04962 18.2341C4.29723 18.4817 4.38365 18.7993 4.36641 19.0666C4.34988 19.3228 4.23423 19.6074 3.9791 19.82L2.05855 17.5154C1.24566 18.1928 1.08574 19.5129 1.9283 20.3555L4.04962 18.2341ZM4.03241 19.7734L6.54073 17.4742L4.51356 15.2627L2.00524 17.562L4.03241 19.7734ZM6.5878 17.4291C6.3402 17.6767 6.02262 17.7631 5.75531 17.7459C5.4991 17.7293 5.2145 17.6137 5.00189 17.3586L7.30656 15.438C6.62915 14.6251 5.30905 14.4652 4.46648 15.3078L6.5878 17.4291ZM5.09356 17.4589C4.84596 17.2113 4.75953 16.8937 4.77678 16.6264C4.79331 16.3702 4.90896 16.0856 5.16409 15.873L7.08464 18.1777C7.89752 17.5003 8.05745 16.1802 7.21488 15.3376L5.09356 17.4589ZM5.11078 15.9196L2.60246 18.2189L4.62963 20.4304L7.13795 18.1311L5.11078 15.9196ZM2.55538 18.264C2.68418 18.1352 2.80883 18.0664 2.89825 18.0281C2.9941 17.987 3.13584 17.9441 3.31743 17.9441V20.9441C3.86071 20.9441 4.35462 20.7074 4.6767 20.3853L2.55538 18.264Z" fill="white" mask="url(#path-15-inside-8_517_530)"/>
</g>
</g>
<g id="Group_13">
<g id="Vector_9">
<mask id="path-17-inside-9_517_530" fill="white">
<path d="M17.1132 6.78296C16.9937 6.78296 16.8743 6.72324 16.7847 6.63366C16.6055 6.45449 16.6354 6.15588 16.8146 6.00658L19.3229 3.70729C19.5021 3.52812 19.8007 3.55798 19.95 3.73715C20.1291 3.91631 20.0993 4.21492 19.9201 4.36423L17.4118 6.66352C17.3222 6.72324 17.2028 6.78296 17.1132 6.78296Z"/>
</mask>
<path d="M16.8146 6.00658L17.7748 7.15891L17.8021 7.13624L17.8282 7.11231L16.8146 6.00658ZM19.3229 3.70729L20.3365 4.81302L20.3605 4.79099L20.3836 4.76795L19.3229 3.70729ZM19.95 3.73715L18.7976 4.69742L18.8412 4.7497L18.8893 4.79781L19.95 3.73715ZM19.9201 4.36423L18.9598 3.2119L18.9326 3.23457L18.9065 3.2585L19.9201 4.36423ZM17.4118 6.66352L18.2438 7.9116L18.3401 7.84742L18.4254 7.76925L17.4118 6.66352ZM17.1132 5.28296C17.4816 5.28296 17.7244 5.45207 17.8454 5.573L15.724 7.69432C16.0242 7.99442 16.5059 8.28296 17.1132 8.28296V5.28296ZM17.8454 5.573C18.093 5.8206 18.1794 6.13819 18.1622 6.40549C18.1456 6.6617 18.03 6.9463 17.7748 7.15891L15.8543 4.85425C15.0414 5.53165 14.8815 6.85176 15.724 7.69432L17.8454 5.573ZM17.8282 7.11231L20.3365 4.81302L18.3093 2.60156L15.801 4.90085L17.8282 7.11231ZM20.3836 4.76795C20.1359 5.01555 19.8184 5.10198 19.5511 5.08473C19.2948 5.0682 19.0102 4.95256 18.7976 4.69742L21.1023 2.77687C20.4249 1.96399 19.1048 1.80406 18.2622 2.64663L20.3836 4.76795ZM18.8893 4.79781C18.6417 4.55021 18.5553 4.23262 18.5725 3.96531C18.5891 3.70911 18.7047 3.42451 18.9598 3.2119L20.8804 5.51656C21.6933 4.83915 21.8532 3.51905 21.0106 2.67649L18.8893 4.79781ZM18.9065 3.2585L16.3982 5.55779L18.4254 7.76925L20.9337 5.46996L18.9065 3.2585ZM16.5797 5.41545C16.5923 5.40704 16.6211 5.38855 16.6716 5.36692C16.6983 5.3555 16.7448 5.33724 16.8086 5.32071C16.8692 5.30498 16.9752 5.28296 17.1132 5.28296V8.28296C17.4526 8.28296 17.7225 8.18045 17.8534 8.12435C18.0084 8.05793 18.1416 7.97972 18.2438 7.9116L16.5797 5.41545Z" fill="white" mask="url(#path-17-inside-9_517_530)"/>
</g>
</g>
</g>
<g id="Group_14">
<g id="Group_15">
<g id="Vector_10">
<mask id="path-19-inside-10_517_530" fill="white">
<path d="M8.84171 4.75245C8.66255 4.75245 8.48338 4.63301 8.42366 4.45384L7.25908 1.25872C7.1695 1.01983 7.28894 0.780947 7.52783 0.691364C7.76672 0.601781 8.00561 0.721225 8.09519 0.960112L9.25977 4.15523C9.34935 4.39412 9.2299 4.63301 8.99102 4.72259C8.9313 4.75245 8.87157 4.75245 8.84171 4.75245Z"/>
</mask>
<path d="M8.42366 4.45384L9.84668 3.9795L9.8401 3.95974L9.83296 3.94017L8.42366 4.45384ZM7.25908 1.25872L8.66845 0.745028L8.66358 0.732037L7.25908 1.25872ZM8.09519 0.960112L9.50455 0.446419L9.49968 0.433427L8.09519 0.960112ZM9.25977 4.15523L7.8504 4.66893L7.85527 4.68192L9.25977 4.15523ZM8.99102 4.72259L8.46433 3.3181L8.39061 3.34574L8.3202 3.38095L8.99102 4.72259ZM8.84171 3.25245C9.27385 3.25245 9.69158 3.51419 9.84668 3.9795L7.00063 4.92818C7.27518 5.75182 8.05124 6.25245 8.84171 6.25245V3.25245ZM9.83296 3.94017L8.66839 0.74505L5.84978 1.77239L7.01435 4.96751L9.83296 3.94017ZM8.66358 0.732037C8.75917 0.986952 8.75491 1.29328 8.62178 1.56978C8.49185 1.83964 8.27271 2.01404 8.05452 2.09586L7.00115 -0.71313C6.04573 -0.35485 5.45243 0.712976 5.85459 1.78541L8.66358 0.732037ZM8.05452 2.09586C7.7996 2.19145 7.49327 2.18719 7.21678 2.05406C6.94691 1.92413 6.77252 1.70499 6.6907 1.4868L9.49968 0.433427C9.1414 -0.521984 8.07358 -1.11529 7.00115 -0.71313L8.05452 2.09586ZM6.68588 1.47378L7.85046 4.66891L10.6691 3.64156L9.50449 0.446441L6.68588 1.47378ZM7.85527 4.68192C7.75968 4.427 7.76394 4.12068 7.89706 3.84418C8.027 3.57432 8.24614 3.39992 8.46433 3.3181L9.5177 6.12709C10.4731 5.76881 11.0664 4.70098 10.6643 3.62855L7.85527 4.68192ZM8.3202 3.38095C8.60236 3.23987 8.85843 3.25245 8.84171 3.25245V6.25245C8.88472 6.25245 9.26023 6.26504 9.66184 6.06423L8.3202 3.38095Z" fill="white" mask="url(#path-19-inside-10_517_530)"/>
</g>
</g>
<g id="Group_16">
<g id="Vector_11">
<mask id="path-21-inside-11_517_530" fill="white">
<path d="M15.2917 22.3408C15.1125 22.3408 14.9333 22.2214 14.8736 22.0422L13.709 18.8471C13.6195 18.6082 13.7389 18.3693 13.9778 18.2797C14.2167 18.1902 14.4556 18.3096 14.5451 18.5485L15.7097 21.7436C15.7993 21.9825 15.6799 22.2214 15.441 22.311C15.3812 22.311 15.3215 22.3408 15.2917 22.3408Z"/>
</mask>
<path d="M14.8736 22.0422L16.2966 21.5679L16.29 21.5481L16.2829 21.5286L14.8736 22.0422ZM13.709 18.8471L15.1184 18.3334L15.1135 18.3204L13.709 18.8471ZM14.5451 18.5485L15.9545 18.0348L15.9496 18.0218L14.5451 18.5485ZM15.7097 21.7436L14.3004 22.2573L14.3052 22.2703L15.7097 21.7436ZM15.441 22.311V23.811H15.713L15.9677 23.7155L15.441 22.311ZM15.2917 20.8408C15.7238 20.8408 16.1415 21.1026 16.2966 21.5679L13.4506 22.5166C13.7251 23.3402 14.5012 23.8408 15.2917 23.8408V20.8408ZM16.2829 21.5286L15.1183 18.3334L12.2997 19.3608L13.4643 22.5559L16.2829 21.5286ZM15.1135 18.3204C15.2091 18.5753 15.2049 18.8817 15.0717 19.1582C14.9418 19.428 14.7227 19.6024 14.5045 19.6842L13.4511 16.8752C12.4957 17.2335 11.9024 18.3014 12.3045 19.3738L15.1135 18.3204ZM14.5045 19.6842C14.2495 19.7798 13.9432 19.7756 13.6667 19.6424C13.3969 19.5125 13.2225 19.2934 13.1406 19.0752L15.9496 18.0218C15.5914 17.0664 14.5235 16.4731 13.4511 16.8752L14.5045 19.6842ZM13.1358 19.0622L14.3004 22.2573L17.119 21.2299L15.9544 18.0348L13.1358 19.0622ZM14.3052 22.2703C14.2096 22.0154 14.2139 21.7091 14.347 21.4326C14.477 21.1627 14.6961 20.9883 14.9143 20.9065L15.9677 23.7155C16.9231 23.3572 17.5164 22.2894 17.1142 21.2169L14.3052 22.2703ZM15.441 20.811C15.3039 20.811 15.1899 20.8278 15.1116 20.843C15.0337 20.858 14.9712 20.8756 14.943 20.8836C14.9354 20.8858 14.9288 20.8877 14.9246 20.889C14.9184 20.8908 14.9192 20.8905 14.9168 20.8912C14.9132 20.8923 14.9244 20.889 14.9405 20.8847C14.956 20.8807 14.9931 20.8713 15.0424 20.8626C15.0682 20.858 15.1019 20.8528 15.1417 20.8486C15.1811 20.8445 15.2321 20.8408 15.2917 20.8408V23.8408C15.355 23.8408 15.4099 23.8369 15.4536 23.8324C15.4975 23.8278 15.5356 23.8219 15.566 23.8165C15.6245 23.8062 15.6717 23.7944 15.6978 23.7876C15.7248 23.7806 15.7473 23.774 15.7558 23.7715C15.7593 23.7705 15.7663 23.7684 15.7664 23.7684C15.7685 23.7678 15.7683 23.7679 15.7672 23.7682C15.7652 23.7688 15.7306 23.7788 15.6817 23.7883C15.6323 23.7979 15.5481 23.811 15.441 23.811V20.811Z" fill="white" mask="url(#path-21-inside-11_517_530)"/>
</g>
</g>
<g id="Group_17">
<g id="Vector_12">
<mask id="path-23-inside-12_517_530" fill="white">
<path d="M4.51185 8.72396C4.45212 8.72396 4.3924 8.72396 4.33268 8.6941L1.257 7.26078C1.01812 7.17119 0.928533 6.90245 1.04798 6.66356C1.16742 6.42467 1.40631 6.33509 1.6452 6.45453L4.72087 7.88786C4.95976 7.97744 5.04934 8.24619 4.9299 8.48508C4.84032 8.63438 4.69101 8.72396 4.51185 8.72396Z"/>
</mask>
<path d="M4.33268 8.6941L5.0035 7.35246L4.98502 7.34322L4.96629 7.33449L4.33268 8.6941ZM1.257 7.26078L1.89061 5.90117L1.83802 5.87666L1.78369 5.85628L1.257 7.26078ZM1.6452 6.45453L0.974375 7.79617L0.992859 7.80541L1.01159 7.81414L1.6452 6.45453ZM4.72087 7.88786L4.08727 9.24747L4.13986 9.27198L4.19419 9.29235L4.72087 7.88786ZM4.9299 8.48508L6.21614 9.25682L6.24578 9.20742L6.27154 9.1559L4.9299 8.48508ZM4.51185 7.22396C4.4668 7.22396 4.53024 7.22205 4.60832 7.23182C4.70496 7.2439 4.84735 7.27439 5.0035 7.35246L3.66186 10.0357C4.08209 10.2459 4.48988 10.224 4.51185 10.224V7.22396ZM4.96629 7.33449L1.89061 5.90117L0.623398 8.62039L3.69908 10.0537L4.96629 7.33449ZM1.78369 5.85628C2.09079 5.97145 2.33045 6.22257 2.43617 6.52917C2.53835 6.82549 2.49883 7.11596 2.38962 7.33438L-0.293664 5.99274C-0.754004 6.91342 -0.458065 8.21963 0.730318 8.66527L1.78369 5.85628ZM2.38962 7.33438C2.30287 7.50787 2.11826 7.72587 1.8063 7.83728C1.48544 7.95188 1.18053 7.89925 0.974375 7.79617L2.31602 5.11289C1.87098 4.89037 1.32718 4.82281 0.797289 5.01206C0.276298 5.19813 -0.0874732 5.58036 -0.293664 5.99274L2.38962 7.33438ZM1.01159 7.81414L4.08727 9.24747L5.35448 6.52825L2.2788 5.09492L1.01159 7.81414ZM4.19419 9.29235C3.88708 9.17719 3.64743 8.92607 3.5417 8.61946C3.43952 8.32315 3.47905 8.03267 3.58826 7.81426L6.27154 9.1559C6.73188 8.23522 6.43594 6.92901 5.24756 6.48336L4.19419 9.29235ZM3.64366 7.71333C3.7212 7.5841 3.84013 7.45661 4.00291 7.36237C4.16741 7.26714 4.34574 7.22396 4.51185 7.22396V10.224C5.2398 10.224 5.86693 9.83884 6.21614 9.25682L3.64366 7.71333Z" fill="white" mask="url(#path-23-inside-12_517_530)"/>
</g>
</g>
<g id="Group_18">
<g id="Vector_13">
<mask id="path-25-inside-13_517_530" fill="white">
<path d="M21.5028 16.5775C21.443 16.5775 21.3833 16.5775 21.3236 16.5476L18.2479 15.1143C18.009 15.0247 17.9194 14.756 18.0389 14.5171C18.1285 14.2782 18.3972 14.1886 18.6361 14.308L21.7118 15.7414C21.9507 15.831 22.0402 16.0997 21.9208 16.3386C21.8312 16.4879 21.6819 16.5775 21.5028 16.5775Z"/>
</mask>
<path d="M21.3236 16.5476L21.9944 15.206L21.9759 15.1967L21.9572 15.188L21.3236 16.5476ZM18.2479 15.1143L18.8815 13.7547L18.8289 13.7302L18.7746 13.7098L18.2479 15.1143ZM18.0389 14.5171L19.3805 15.1879L19.4157 15.1175L19.4434 15.0438L18.0389 14.5171ZM18.6361 14.308L17.9653 15.6497L17.9838 15.6589L18.0025 15.6677L18.6361 14.308ZM21.7118 15.7414L21.0782 17.101L21.1308 17.1255L21.1851 17.1459L21.7118 15.7414ZM21.9208 16.3386L23.207 17.1103L23.2367 17.0609L23.2624 17.0094L21.9208 16.3386ZM21.5028 15.0775C21.4577 15.0775 21.5211 15.0756 21.5992 15.0853C21.6959 15.0974 21.8383 15.1279 21.9944 15.206L20.6528 17.8893C21.073 18.0994 21.4808 18.0775 21.5028 18.0775V15.0775ZM21.9572 15.188L18.8815 13.7547L17.6143 16.4739L20.69 17.9072L21.9572 15.188ZM18.7746 13.7098C19.0817 13.825 19.3214 14.0761 19.4271 14.3827C19.5293 14.679 19.4897 14.9695 19.3805 15.1879L16.6972 13.8463C16.2369 14.7669 16.5328 16.0731 17.7212 16.5188L18.7746 13.7098ZM19.4434 15.0438C19.3282 15.3509 19.0771 15.5905 18.7705 15.6962C18.4742 15.7984 18.1837 15.7589 17.9653 15.6497L19.3069 12.9664C18.3862 12.5061 17.08 12.802 16.6344 13.9904L19.4434 15.0438ZM18.0025 15.6677L21.0782 17.101L22.3454 14.3818L19.2697 12.9484L18.0025 15.6677ZM21.1851 17.1459C20.878 17.0307 20.6383 16.7796 20.5326 16.473C20.4304 16.1767 20.47 15.8862 20.5792 15.6678L23.2624 17.0094C23.7228 16.0887 23.4269 14.7825 22.2385 14.3369L21.1851 17.1459ZM20.6346 15.5668C20.7121 15.4376 20.831 15.3101 20.9938 15.2159C21.1583 15.1207 21.3366 15.0775 21.5028 15.0775V18.0775C22.2307 18.0775 22.8578 17.6923 23.207 17.1103L20.6346 15.5668Z" fill="white" mask="url(#path-25-inside-13_517_530)"/>
</g>
</g>
<g id="Group_19">
<g id="Vector_14">
<mask id="path-27-inside-14_517_530" fill="white">
<path d="M1.07783 15.7712C0.898666 15.7712 0.7195 15.6518 0.659778 15.4726C0.570195 15.2337 0.689639 14.9948 0.928527 14.9053L4.12365 13.7407C4.36253 13.6511 4.60142 13.7705 4.69101 14.0094C4.78059 14.2483 4.66114 14.4872 4.42226 14.5768L1.22714 15.7414C1.19728 15.7414 1.13755 15.7712 1.07783 15.7712Z"/>
</mask>
<path d="M0.659778 15.4726L2.0828 14.9983L2.07402 14.9719L2.06427 14.9459L0.659778 15.4726ZM0.928527 14.9053L0.414833 13.4959L0.401841 13.5008L0.928527 14.9053ZM4.12365 13.7407L4.63734 15.15L4.65033 15.1452L4.12365 13.7407ZM4.42226 14.5768L4.93595 15.9862L4.94894 15.9813L4.42226 14.5768ZM1.22714 15.7414V17.2414H1.49198L1.74081 17.1507L1.22714 15.7414ZM1.07783 14.2712C1.50998 14.2712 1.9277 14.533 2.0828 14.9983L-0.763247 15.947C-0.488703 16.7706 0.287352 17.2712 1.07783 17.2712V14.2712ZM2.06427 14.9459C2.15987 15.2008 2.15561 15.5072 2.02248 15.7837C1.89254 16.0535 1.6734 16.2279 1.45521 16.3098L0.401841 13.5008C-0.553566 13.859 -1.14688 14.9269 -0.744715 15.9993L2.06427 14.9459ZM1.4422 16.3146L4.63732 15.15L3.60998 12.3314L0.414854 13.496L1.4422 16.3146ZM4.65033 15.1452C4.39541 15.2408 4.08909 15.2365 3.81259 15.1034C3.54273 14.9734 3.36833 14.7543 3.28651 14.5361L6.0955 13.4827C5.73722 12.5273 4.6694 11.934 3.59696 12.3362L4.65033 15.1452ZM3.28651 14.5361C3.19092 14.2812 3.19518 13.9749 3.32831 13.6984C3.45824 13.4285 3.67738 13.2541 3.89557 13.1723L4.94894 15.9813C5.90435 15.623 6.49766 14.5552 6.0955 13.4827L3.28651 14.5361ZM3.90859 13.1675L0.713464 14.3321L1.74081 17.1507L4.93593 15.9861L3.90859 13.1675ZM1.22714 14.2414C1.16383 14.2414 1.10892 14.2453 1.06524 14.2498C1.02127 14.2544 0.983201 14.2603 0.952837 14.2657C0.89426 14.276 0.847148 14.2878 0.820954 14.2946C0.794036 14.3016 0.771451 14.3082 0.763033 14.3107C0.759456 14.3117 0.752466 14.3138 0.752376 14.3138C0.750333 14.3144 0.750506 14.3143 0.751577 14.314C0.7536 14.3134 0.788156 14.3034 0.837107 14.2939C0.886483 14.2843 0.970671 14.2712 1.07783 14.2712V17.2712C1.21485 17.2712 1.3289 17.2544 1.40721 17.2392C1.48508 17.2242 1.54763 17.2066 1.57579 17.1986C1.58339 17.1964 1.58998 17.1945 1.59422 17.1932C1.60041 17.1914 1.59958 17.1917 1.60201 17.191C1.6056 17.1899 1.59445 17.1932 1.57826 17.1974C1.5628 17.2015 1.52572 17.2109 1.47636 17.2196C1.4506 17.2242 1.41694 17.2294 1.37715 17.2336C1.33765 17.2377 1.28671 17.2414 1.22714 17.2414V14.2414Z" fill="white" mask="url(#path-27-inside-14_517_530)"/>
</g>
</g>
<g id="Group_20">
<g id="Vector_15">
<mask id="path-29-inside-15_517_530" fill="white">
<path d="M18.6659 9.32152C18.4868 9.32152 18.3076 9.20207 18.2479 9.02291C18.1583 8.78402 18.2777 8.54513 18.5166 8.45555L21.7118 7.29097C21.9506 7.20139 22.1895 7.32083 22.2791 7.55972C22.3687 7.79861 22.2493 8.0375 22.0104 8.12708L18.8152 9.29166C18.7555 9.29166 18.6958 9.32152 18.6659 9.32152Z"/>
</mask>
<path d="M18.2479 9.02291L19.6709 8.54857L19.6621 8.52222L19.6524 8.49622L18.2479 9.02291ZM18.5166 8.45555L18.0029 7.04618L17.9899 7.05106L18.5166 8.45555ZM21.7118 7.29097L22.2254 8.70034L22.2384 8.69547L21.7118 7.29097ZM22.0104 8.12708L22.5241 9.53645L22.537 9.53157L22.0104 8.12708ZM18.8152 9.29166V10.7917H19.0801L19.3289 10.701L18.8152 9.29166ZM18.6659 7.82152C19.0981 7.82152 19.5158 8.08326 19.6709 8.54857L16.8249 9.49725C17.0994 10.3209 17.8755 10.8215 18.6659 10.8215V7.82152ZM19.6524 8.49622C19.748 8.75114 19.7437 9.05747 19.6106 9.33396C19.4806 9.60382 19.2615 9.77822 19.0433 9.86004L17.9899 7.05106C17.0345 7.40933 16.4412 8.47716 16.8434 9.54959L19.6524 8.49622ZM19.0303 9.86486L22.2254 8.70028L21.1981 5.88167L18.003 7.04624L19.0303 9.86486ZM22.2384 8.69547C21.9835 8.79106 21.6772 8.7868 21.4007 8.65367C21.1308 8.52374 20.9564 8.30459 20.8746 8.08641L23.6836 7.03304C23.3253 6.07763 22.2575 5.48432 21.1851 5.88648L22.2384 8.69547ZM20.8746 8.08641C20.779 7.83149 20.7833 7.52517 20.9164 7.24867C21.0463 6.97881 21.2655 6.80441 21.4837 6.72259L22.537 9.53157C23.4925 9.17329 24.0858 8.10546 23.6836 7.03304L20.8746 8.08641ZM21.4967 6.71777L18.3016 7.88235L19.3289 10.701L22.524 9.53639L21.4967 6.71777ZM18.8152 7.79166C18.6782 7.79166 18.5642 7.8085 18.4859 7.82365C18.408 7.83873 18.3455 7.85626 18.3173 7.8643C18.3097 7.86648 18.3031 7.8684 18.2989 7.86964C18.2927 7.87145 18.2935 7.87121 18.2911 7.87192C18.2875 7.87296 18.2986 7.86965 18.3148 7.86543C18.3303 7.86139 18.3674 7.852 18.4167 7.84325C18.4425 7.83868 18.4761 7.83347 18.5159 7.82931C18.5554 7.82518 18.6064 7.82152 18.6659 7.82152V10.8215C18.7292 10.8215 18.7841 10.8176 18.8278 10.8131C18.8718 10.8085 18.9099 10.8026 18.9402 10.7972C18.9988 10.7868 19.0459 10.7751 19.0721 10.7683C19.099 10.7613 19.1216 10.7547 19.13 10.7522C19.1336 10.7512 19.1406 10.7491 19.1407 10.7491C19.1427 10.7485 19.1426 10.7486 19.1415 10.7489C19.1395 10.7494 19.1049 10.7595 19.056 10.769C19.0066 10.7785 18.9224 10.7917 18.8152 10.7917V7.79166Z" fill="white" mask="url(#path-29-inside-15_517_530)"/>
</g>
</g>
<g id="Group_21">
<path id="Vector_16" d="M7.09377 21.6909L7.09434 21.6897L7.09377 21.6909Z" stroke="white" stroke-width="1.5"/>
</g>
<g id="Group_22">
<g id="Vector_17">
<mask id="path-32-inside-16_517_530" fill="white">
<path d="M14.6945 4.99132C14.6347 4.99132 14.575 4.99132 14.5153 4.96145C14.2764 4.87187 14.1868 4.60312 14.3063 4.36424L15.7396 1.28856C15.8292 1.04967 16.0979 0.960088 16.3368 1.07953C16.5757 1.16911 16.6653 1.43786 16.5458 1.67675L15.1125 4.75243C15.0229 4.90173 14.8438 4.99132 14.6945 4.99132Z"/>
</mask>
<path d="M14.5153 4.96145L15.1861 3.61981L15.1157 3.5846L15.042 3.55696L14.5153 4.96145ZM14.3063 4.36424L15.6479 5.03506L15.6572 5.01657L15.6659 4.99784L14.3063 4.36424ZM15.7396 1.28856L17.0992 1.92216L17.1237 1.86957L17.1441 1.81524L15.7396 1.28856ZM16.3368 1.07953L15.666 2.42117L15.7364 2.45638L15.8101 2.48403L16.3368 1.07953ZM16.5458 1.67675L15.2042 1.00593L15.195 1.02441L15.1862 1.04315L16.5458 1.67675ZM15.1125 4.75243L16.3988 5.52417L16.4391 5.45702L16.4721 5.38603L15.1125 4.75243ZM14.6945 3.49132C14.6494 3.49132 14.7129 3.48941 14.7909 3.49917C14.8876 3.51125 15.03 3.54174 15.1861 3.61981L13.8445 6.3031C14.2647 6.51321 14.6725 6.49132 14.6945 6.49132V3.49132ZM15.042 3.55696C15.3491 3.67213 15.5888 3.92325 15.6945 4.22985C15.7967 4.52617 15.7571 4.81664 15.6479 5.03506L12.9646 3.69342C12.5043 4.6141 12.8002 5.92031 13.9886 6.36595L15.042 3.55696ZM15.6659 4.99784L17.0992 1.92216L14.38 0.654952L12.9467 3.73063L15.6659 4.99784ZM17.1441 1.81524C17.0289 2.12235 16.7778 2.36201 16.4712 2.46773C16.1749 2.56991 15.8844 2.53038 15.666 2.42117L17.0076 -0.262109C16.087 -0.722449 14.7808 -0.42651 14.3351 0.761873L17.1441 1.81524ZM15.8101 2.48403C15.503 2.36886 15.2634 2.11774 15.1576 1.81114C15.0555 1.51482 15.095 1.22434 15.2042 1.00593L17.8875 2.34757C18.3478 1.4269 18.0519 0.120683 16.8635 -0.324962L15.8101 2.48403ZM15.1862 1.04315L13.7529 4.11882L16.4721 5.38603L17.9055 2.31036L15.1862 1.04315ZM13.8263 3.98068C13.9379 3.79468 14.0816 3.68031 14.203 3.61354C14.3203 3.54903 14.4847 3.49132 14.6945 3.49132V6.49132C15.342 6.49132 16.0237 6.14935 16.3988 5.52417L13.8263 3.98068Z" fill="white" mask="url(#path-32-inside-16_517_530)"/>
</g>
</g>
</g>
</g>
</g>
</g>
</svg>
