<svg width="20" height="20" viewBox="0 0 20 20" fill="none" xmlns="http://www.w3.org/2000/svg">
<g id="vuesax/linear/ticket">
<g id="ticket">
<path id="Vector" d="M16.25 10.4168C16.25 9.26683 17.1833 8.3335 18.3333 8.3335V7.50016C18.3333 4.16683 17.5 3.3335 14.1667 3.3335H5.83332C2.49999 3.3335 1.66666 4.16683 1.66666 7.50016V7.91683C2.81666 7.91683 3.74999 8.85016 3.74999 10.0002C3.74999 11.1502 2.81666 12.0835 1.66666 12.0835V12.5002C1.66666 15.8335 2.49999 16.6668 5.83332 16.6668H14.1667C17.5 16.6668 18.3333 15.8335 18.3333 12.5002C17.1833 12.5002 16.25 11.5668 16.25 10.4168Z" stroke="white" stroke-width="1.25" stroke-linecap="round" stroke-linejoin="round"/>
<path id="Vector_2" d="M8.33334 3.3335L8.33334 16.6668" stroke="white" stroke-width="1.25" stroke-linecap="round" stroke-linejoin="round" stroke-dasharray="4.17 4.17"/>
</g>
</g>
</svg>
